<?xml version="1.0" encoding="UTF-8" standalone="no"?>
<svg xmlns="http://www.w3.org/2000/svg" width="1080" height="1090">
  <path fill="red" d="M1079.9999772 545.00003426c0 300.9951977-241.766234 544.99997458-539.9999929 544.99997458C241.7662254 1090.00000884 2e-8 845.99523196 2e-8 545.00003426 2e-8 244.00482696 241.7662254.00000491 539.9999843.00000491s539.9999929 244.00482205 539.9999929 545.00002935z"/>
  <path fill="#fff" d="M962.85714554 540.00000308c0 235.115499-188.04040928 425.71428426-420.00000364 425.71428426-231.95960562 0-420.0000149-190.59878527-420.0000149-425.71428426 0-235.11551006 188.04040928-425.71428425 420.0000149-425.71428425 230.31272123 0 417.66393142 188.00102286 419.97879284 421.43545842"/>
  <g stroke="#000" stroke-linecap="round" stroke-linejoin="round" stroke-width="11.85706031">
    <path fill="#f7c1b6" d="m566.61965814 452.523907 103.4577488 283.347481s32.08889276-1.5359161 56.58505347 0c15.75735139.98801782 28.2494118-5.3832674 40.22649868-16.31724419 15.52732483-14.17496942 29.87138594-30.9776992 29.87138594-30.9776992l138.93400848-.82260354c19.92274625-71.51182788 37.49429328-145.01306064 8.86116022-257.6105929l-139.34972656 1.68912967c-61.74640521-40.93829904-145.95347847-87.61526732-199.95493476-95.11685825"/>
    <path fill="#dbb66c" d="m143.1706112 426.26283466 142.49978087-1.72720966c42.25972304-47.70918364 83.25081169-48.60069548 131.38165911-63.60060548 113.54028712-35.38470615 180.51416855 73.06434384 209.95062457 93.3335562 4.16209551 2.86593216 6.323479 4.74803943 9.3531414 8.13399726 49.6138021 55.44842743 57.56856906 60.66346234 90.04015203 94.41041589 23.60550808 24.4995288 31.93636655 27.54860925 32.24822385 66.8852114.34914683 44.04071898-4.77752737 108.6883869-4.77752737 108.6883869-6.76253312 20.53230113-28.04904503 32.2859258-46.4358408 32.94789224-18.8114496 20.86636031-36.77833435 25.17369596-58.96800892 18.41040674-9.43607194 19.96209787-27.97013557 31.28062076-54.04565384 29.8594258-15.25856529 13.58256428-23.32306999 13.98944973-46.86324407 9.69991683-146.4509242 9.06781638-215.00337271-64.0904902-282.187897-138.69274352l-112.49401516-1.06555254c-30.51049751-103.25250175-31.9396659-164.6145327-9.7013603-258.71171656z"/>
    <path fill="#f7c1b6" d="m274.42589834 720.76985115 56.5850191-52.36229803c24.78509441-5.01274352 42.97379171 23.21982784 32.0930513 43.07222232l-49.82863789 58.27414877c-25.9223047-1.02465435-46.34644903-25.84043958-38.8494325-48.98407306zm54.86492366 39.61532848c35.48320205-49.91335558 66.20832915-73.67833224 101.79020238-118.05204499 27.61933907-24.77230943 70.13864534 5.61329394 52.94250246 34.7739793-17.19614288 29.16068536-102.1162194 115.3748975-109.95623083 122.79279836-20.20439388 9.71710094-53.41578733-12.35493118-44.77647401-39.51473267z"/>
    <path fill="none" d="M593.9681412 812.72572257c2.57689537-34.5019204 3.89003663-66.58844175 1.68119061-86.5103288-11.90357324-21.49725787-58.5522221-54.27031894-95.42658128-81.55570193"/>
    <path fill="#f7c1b6" d="M396.88608099 788.33411c42.35189863-45.8605854 78.39255334-97.45898082 119.92648814-144.4185934 25.31099703-26.16745328 71.46512146 9.0967888 53.2068285 34.62667707-28.74142735 40.18814373-108.72931946 133.80523781-123.30471312 147.796784-19.98368111 8.16266037-53.15534489-11.93474521-49.82860352-38.00486767zm207.04063233-451.38206826c-36.973649 8.14358943-89.90979333 44.7702568-133.2633196 67.85463945-33.78207787 104.4040436-59.42300989 137.9316591-27.0256623 146.10765434 48.58547036 15.49852425 100.35825017-62.2493155 119.92648815-112.3255421l68.04496725 16.77269194"/>
    <path fill="none" d="m648.864065 784.0109306.84456484-107.2582562-85.29984544-77.69886502-1.68912967-9.2900757m43.07222232-64.18599952s.93423154 1.48766312 1.68912967 8.44554525c3.69585614 5.41320212 82.77168422 77.40810981 92.90079148 93.74532194.28938048 46.16893713 1.11820466 91.49327506 5.9118851 137.66214346"/>
    <path fill="#f7c1b6" d="M468.35680447 820.60137386c3.05849735-5.3282095 65.62520342-87.51343427 94.33343106-116.38109611 23.7211228-23.85292496 66.8593665 13.39628849 39.53370393 46.10917078-34.43232474 41.22053093-58.24417967 71.60936492-88.55376052 94.327451-19.40581373 5.50867705-47.73066379-4.70813793-45.31337447-24.05552567z"/>
  </g>
  <path fill="#00c900" stroke="#000" stroke-width="11" d="m571.428551 434.28572 61.42857 14.28571 115.71429 127.14286 12.85714 20 2.85715 40 177.14285-168.57143-200-197.14285z"/>
  <path fill="#00c900" stroke="#000" stroke-width="11" d="M801.42857 575.93359c0 36.68749-29.74108 66.42858-66.42857 66.42858s-66.42857-29.74109-66.42857-66.42858c0-36.68748 29.74108-66.42857 66.42857-66.42857 36.42701 0 66.05909 29.33573 66.42522 65.7609" transform="matrix(1.22097 0 0 1.15645 -133.842119 -228.18396)"/>
  <text xml:space="preserve" x="150.67816" y="929.02057" font-family="Arial" font-size="140.46704102" font-weight="400" letter-spacing="0" style="line-height:125%;-inkscape-font-specification:Arial" transform="matrix(.78535 -.62424 .64355 .76179 48.571411 -115.21932)" word-spacing="0"><tspan x="150.67816" y="929.02057" font-weight="700" style="-inkscape-font-specification:Arial Bold">$</tspan></text>
  <path fill="#ff0200" d="m195.714271 254.28573 79.99999-81.42858 625.71429 650.00002-94.28571 62.85721z"/>
</svg>